<svg xmlns="http://www.w3.org/2000/svg" version="1.1" xmlns:xlink="http://www.w3.org/1999/xlink" xmlns:svgjs="http://svgjs.dev/svgjs" width="1000" height="1000" viewBox="0 0 1000 1000"><rect width="1000" height="1000" fill="#ffffff"></rect><g transform="matrix(0.7,0,0,0.7,149.57575757575756,381.6818803693091)"><svg viewBox="0 0 396 134" data-background-color="#1f2d5a" preserveAspectRatio="xMidYMid meet" height="338" width="1000" xmlns="http://www.w3.org/2000/svg" xmlns:xlink="http://www.w3.org/1999/xlink"><g id="tight-bounds" transform="matrix(1,0,0,1,0.2400000000000091,0.01026217460935186)"><svg viewBox="0 0 395.52 133.9794756507813" height="133.9794756507813" width="395.52"><g><svg viewBox="0 0 664.135615388797 224.9710293052184" height="133.9794756507813" width="395.52"><g transform="matrix(1,0,0,1,268.615615388797,66.26672697027533)"><svg viewBox="0 0 395.52 92.43757536466774" height="92.43757536466774" width="395.52"><g><svg viewBox="0 0 395.52 92.43757536466774" height="92.43757536466774" width="395.52"><g><svg viewBox="0 0 395.52 92.43757536466774" height="92.43757536466774" width="395.52"><g transform="matrix(1,0,0,1,0,0)"><svg width="395.52" viewBox="3.9000000953674316 -35.5 154.24000549316406 36.04999923706055" height="92.43757536466774" data-palette-color="#fbfbfb"><path d="M26.95 0L5.45-32.2 5.45 0 3.9 0 3.9-35 5.45-35 26.95-2.85 26.95-35 28.5-35 28.5 0 26.95 0ZM56.45 0L50.6-13.55Q49.85-13.4 49.1-13.4L49.1-13.4 38.05-13.4 38.05 0 36.4 0 36.4-35 48.45-35Q53.35-35 55.72-32.1 58.1-29.2 58.1-24.3L58.1-24.3Q58.1-21.05 56.85-18.1 55.6-15.15 52.15-13.95L52.15-13.95 58.15 0 56.45 0ZM48.6-15Q52.95-15 54.7-17.78 56.45-20.55 56.45-24.3L56.45-24.3Q56.45-28.7 54.4-31.05 52.35-33.4 48.5-33.4L48.5-33.4 38.05-33.4 38.05-15 48.6-15ZM66.15 0L66.15-33.4 62.15-33.5 62.15-35 67.75-35 67.75 0 66.15 0ZM74.34 0L74.34-35 85.39-35Q89.39-35 91.79-32.95 94.19-30.9 94.19-26.85L94.19-26.85Q94.19-24.95 93.24-23 92.29-21.05 90.19-20L90.19-20 90.14-19.9 90.14-19.85Q92.64-18.85 94.32-16.55 95.99-14.25 95.99-10.45L95.99-10.45Q95.99-6.15 93.67-3.08 91.34 0 85.84 0L85.84 0 74.34 0ZM86.54-20.65Q88.99-20.65 90.74-22.25 92.49-23.85 92.54-26.5L92.54-26.5Q92.69-30 90.72-31.73 88.74-33.45 84.99-33.45L84.99-33.45 75.94-33.45 75.94-20.65 86.54-20.65ZM85.74-1.55Q89.84-1.55 92.09-3.8 94.34-6.05 94.34-10.65L94.34-10.65Q94.34-14.4 92.09-16.73 89.84-19.05 86.14-19.05L86.14-19.05 75.94-19.05 75.94-1.55 85.74-1.55ZM126.99 0L126.99-30.4 115.94 0 114.29 0 103.29-30.4 103.29 0 101.74 0 101.74-35 103.29-35 115.14-2.5 126.99-35 128.54-35 128.54 0 126.99 0ZM136.09-8.9Q136.14-7.05 137.31-5.23 138.49-3.4 140.74-2.2 142.99-1 146.14-1L146.14-1Q150.64-1 153.51-3 156.39-5 156.39-9.35L156.39-9.35Q156.39-11.7 154.99-13.28 153.59-14.85 151.51-15.8 149.44-16.75 146.04-17.85L146.04-17.85Q142.44-19.05 140.34-20.03 138.24-21 136.76-22.68 135.29-24.35 135.29-26.9L135.29-26.9Q135.29-29.1 136.54-31.08 137.79-33.05 140.31-34.27 142.84-35.5 146.54-35.5L146.54-35.5Q148.99-35.5 150.59-35.15 152.19-34.8 153.84-34L153.84-34 153.29-32.4Q151.84-33.15 150.06-33.55 148.29-33.95 146.64-33.95L146.64-33.95Q142.44-33.95 139.71-32.08 136.99-30.2 136.99-26.75L136.99-26.75Q136.99-24.8 138.26-23.48 139.54-22.15 141.44-21.33 143.34-20.5 146.59-19.4L146.59-19.4Q150.44-18.1 152.69-17.05 154.94-16 156.54-14.15 158.14-12.3 158.14-9.45L158.14-9.45Q158.14-4.85 155.21-2.15 152.29 0.55 146.19 0.55L146.19 0.55Q142.49 0.55 139.86-0.83 137.24-2.2 135.86-4.38 134.49-6.55 134.39-8.9L134.39-8.9 136.09-8.9Z" opacity="1" transform="matrix(1,0,0,1,0,0)" fill="#000000" class="undefined-text-0" data-fill-palette-color="primary" id="text-0"></path></svg></g></svg></g></svg></g></svg></g><g><svg viewBox="0 0 224.9710293052184 224.9710293052184" height="224.9710293052184" width="224.9710293052184"><g><svg></svg></g><g id="icon-0"><svg viewBox="0 0 224.9710293052184 224.9710293052184" height="224.9710293052184" width="224.9710293052184"><g><path d="M0 112.486c0-62.124 50.361-112.486 112.486-112.486 62.124 0 112.486 50.361 112.485 112.486 0 62.124-50.361 112.486-112.485 112.485-62.124 0-112.486-50.361-112.486-112.485zM112.486 216.635c57.52 0 104.149-46.629 104.149-104.149 0-57.52-46.629-104.149-104.149-104.15-57.52 0-104.149 46.629-104.15 104.15 0 57.52 46.629 104.149 104.15 104.149z" data-fill-palette-color="accent" fill="#000000" stroke="transparent"></path></g><g transform="matrix(1,0,0,1,47.48272217734268,47.48272217734268)"><svg viewBox="0 0 130.00558495053303 130.00558495053303" height="130.00558495053303" width="130.00558495053303"><g><svg xmlns="http://www.w3.org/2000/svg" xmlns:xlink="http://www.w3.org/1999/xlink" version="1.1" x="0" y="0" viewBox="5 5 90 90" enable-background="new 0 0 100 100" xml:space="preserve" height="130.00558495053303" width="130.00558495053303" class="icon-c-0" data-fill-palette-color="accent" id="c-0"><path fill="#000000" d="M95 52c0-12.871-5.692-24.431-14.682-32.318C72.431 10.692 60.871 5 48 5 24.29 5 5 24.29 5 48c0 12.868 5.69 24.426 14.677 32.313C27.564 89.306 39.126 95 52 95c0.084 0 0.166-0.006 0.25-0.006S52.416 95 52.5 95C75.972 95 95 75.972 95 52.5c0-0.084-0.006-0.166-0.006-0.25S95 52.084 95 52zM21.828 73.371c-4.245-5.978-6.77-13.259-6.822-21.121 0.135-20.511 16.732-37.109 37.244-37.244 7.862 0.052 15.144 2.577 21.121 6.822C80.224 28.473 84.5 37.758 84.5 48c0 20.126-16.374 36.5-36.5 36.5C37.758 84.5 28.473 80.224 21.828 73.371zM6 48C6 24.841 24.841 6 48 6c9.858 0 18.926 3.422 26.1 9.13C67.637 11.242 60.076 9 52 9 28.29 9 9 28.29 9 52c0 8.074 2.241 15.633 6.127 22.095C9.421 66.923 6 57.856 6 48zM52 89c-10.08 0-19.227-4.055-25.905-10.615C32.269 82.854 39.838 85.5 48 85.5c20.678 0 37.5-16.822 37.5-37.5 0-8.162-2.646-15.731-7.115-21.905C84.945 32.773 89 41.92 89 52 89 72.402 72.402 89 52 89z" data-fill-palette-color="accent"></path></svg></g></svg></g></svg></g></svg></g></svg></g><defs></defs></svg><rect width="395.52" height="133.9794756507813" fill="none" stroke="none" visibility="hidden"></rect></g></svg></g></svg>