<svg id="visual" viewBox="0 0 900 600" width="900" height="600" xmlns="http://www.w3.org/2000/svg" xmlns:xlink="http://www.w3.org/1999/xlink" version="1.1"><rect x="0" y="0" width="900" height="600" fill="#1F2D5A"></rect><path d="M609 600L618.8 580C628.7 560 648.3 520 655.2 480C662 440 656 400 640.5 360C625 320 600 280 617.5 240C635 200 695 160 716.7 120C738.3 80 721.7 40 713.3 20L705 0L900 0L900 20C900 40 900 80 900 120C900 160 900 200 900 240C900 280 900 320 900 360C900 400 900 440 900 480C900 520 900 560 900 580L900 600Z" fill="#2F76DB" stroke-linecap="round" stroke-linejoin="miter"></path></svg>